<?xml version="1.0" encoding="utf-8"?>
<?xml-stylesheet type="text/xsl" href="rss1.xsl"?>
<rss version="2.0" xmlns:atom="http://www.w3.org/2005/Atom" xmlns:content="http://purl.org/rss/1.0/modules/content/" xmlns:dc="http://purl.org/dc/elements/1.1/" xmlns:media="http://search.yahoo.com/mrss/">
<channel>
 <title>Getty</title>
 <link>http://www.gettyimg.com/</link>
 <atom:link href="http://www.gettyimg.com/" rel="self" type="application/rss+xml" />

 
                <item>
                <title><![CDATA[【Apple Music】WEB-RiP - Doja Cat - Paint The Town Red [Apple HD Music Video]]]></title>
                <link><![CDATA[https://sharemania.us/threads/doja-cat-paint-the-town-red-apple-hd-music-video.242668/]]></link>
                <description><![CDATA[<article>
<blockquote class="messageText SelectQuoteContainer ugc baseHtml">
<span style="font-size: 22px"><b>Doja Cat - Paint The Town Red [Apple HD Music Video]</b></span><br>
<br>
<img src="https://imgur.com/O8h8ij7.jpg" class="bbCodeImage LbImage" alt="[​IMG]" data-url="https://imgur.com/O8h8ij7.jpg" style=""><br>
<br>
<div class="bbCodeBlock bbCodeCode">
<div class="type">Code:</div>
<pre>General
Format                         : MPEG-4
Codec ID                       : M4V  (isom/M4V /mp42)
File size                      : 364 MiB
Duration                       : 4 min 55 s
Overall bit rate mode          : Variable
Overall bit rate               : 10.3 Mb/s
Movie name                     : Paint The Town Red
Performer                      : Doja Cat
Genre                          : Rap
ContentType                    : Music Video
Recorded date                  : UTC 2023-08-04 07:00:00
Encoded date                   : UTC 2024-03-12 18:10:39
Tagged date                    : UTC 2024-03-12 18:10:39
Copyright                      : ℗ (C) 2023 Kemosabe Records/RCA Records
Cover                          : Yes
Rating                         : Explicit
GenreID                        : 1809
AppleStoreCountry              : Canada
AlbumTitleID                   : 830588310
AppleStoreCatalogID            : 1701008023

Video
ID                             : 2
Format                         : AVC
Format/Info                    : Advanced Video Codec
Format profile                 : High@L4
Format settings                : CABAC / 4 Ref Frames
Format settings, CABAC         : Yes
Format settings, Reference fra : 4 frames
Codec ID                       : avc1
Codec ID/Info                  : Advanced Video Coding
Duration                       : 4 min 55 s
Source duration                : 4 min 55 s
Bit rate                       : 9 633 kb/s
Maximum bit rate               : 15.1 Mb/s
Width                          : 1 920 pixels
Height                         : 1 080 pixels
Display aspect ratio           : 16:9
Frame rate mode                : Constant
Frame rate                     : 23.976 (24000/1001) FPS
Color space                    : YUV
Chroma subsampling             : 4:2:0
Bit depth                      : 8 bits
Scan type                      : Progressive
Bits/(Pixel*Frame)             : 0.194
Stream size                    : 340 MiB (93%)
Source stream size             : 354 MiB (97%)
Title                          : Core Media Video
Language                       : English
Encoded date                   : UTC 2024-02-14 11:01:22
Tagged date                    : UTC 2024-03-12 18:10:57
Color range                    : Limited
Color primaries                : BT.709
Transfer characteristics       : BT.709
Matrix coefficients            : BT.709
mdhd_Duration                  : 295921
Codec configuration box        : avcC

Audio
ID                             : 1
Format                         : AAC LC
Format/Info                    : Advanced Audio Codec Low Complexity
Codec ID                       : mp4a-40-2
Duration                       : 4 min 55 s
Duration_LastFrame             : -13 ms
Bit rate mode                  : Variable
Bit rate                       : 265 kb/s
Maximum bit rate               : 333 kb/s
Channel(s)                     : 2 channels
Channel layout                 : L R
Sampling rate                  : 48.0 kHz
Frame rate                     : 46.875 FPS (1024 SPF)
Compression mode               : Lossy
Stream size                    : 9.38 MiB (3%)
Title                          : Core Media Audio
Encoded date                   : UTC 2024-02-14 11:00:59
Tagged date                    : UTC 2024-03-12 18:10:57

Text
ID                             : 3
Format                         : EIA-608
Codec ID                       : c608
Duration                       : 3 min 58 s
Bit rate mode                  : Variable
Bit rate                       : 166 b/s
Maximum bit rate               : 896 b/s
Frame rate                     : 0.344 FPS
Stream size                    : 4.83 KiB (0%)
Title                          : Core Media Closed Caption
Language                       : English
Forced                         : No
Encoded date                   : UTC 2024-02-14 11:01:22
Tagged date                    : UTC 2024-03-12 18:10:57
</pre>
</div>
<div class="bbCodeBlock bbCodeVfcHH HiddenContent">
<div class="attribution type">Hidden Content:</div>
<blockquote>You must reply before you can see the hidden data contained here.</blockquote>
</div>
<div class="messageTextEndMarker">&nbsp;</div>
</blockquote>
</article>]]></description>
                <author><![CDATA[Mu$iC @$YLUM]]></author>
                </item>

                
                <item>
                <title><![CDATA[【Requests】[REQ VID] - Sabrina Washington - OMG (Oh My Gosh) .VOB/DVD/HQ Quality]]></title>
                <link><![CDATA[https://sharemania.us/threads/sabrina-washington-omg-oh-my-gosh-vob-dvd-hq-quality.242667/]]></link>
                <description><![CDATA[<article>
<blockquote class="messageText SelectQuoteContainer ugc baseHtml">
Anyone??
<div class="messageTextEndMarker">&nbsp;</div>
</blockquote>
</article>]]></description>
                <author><![CDATA[josedavidhcu]]></author>
                </item>

                
                <item>
                <title><![CDATA[【Actresses】Heather Kozar - Video Calendar (2000)720p]]></title>
                <link><![CDATA[https://sharemania.us/threads/heather-kozar-video-calendar-2000-720p.242666/]]></link>
                <description><![CDATA[<article>
<blockquote class="messageText SelectQuoteContainer ugc baseHtml">
Heather Kozar - Video Calendar (2000)720p<br>
<br>
<a href="https://imgbox.com/r83Tu2pW" target="_blank" class="externalLink" rel="nofollow"><img src="https://thumbs2.imgbox.com/d2/71/r83Tu2pW_t.jpg" class="bbCodeImage LbImage" alt="[​IMG]" data-url="https://thumbs2.imgbox.com/d2/71/r83Tu2pW_t.jpg"></a> <a href="https://imgbox.com/ASnOYvCu" target="_blank" class="externalLink" rel="nofollow"><img src="https://thumbs2.imgbox.com/b5/55/ASnOYvCu_t.jpg" class="bbCodeImage LbImage" alt="[​IMG]" data-url="https://thumbs2.imgbox.com/b5/55/ASnOYvCu_t.jpg"></a> <a href="https://imgbox.com/gsfilyH8" target="_blank" class="externalLink" rel="nofollow"><img src="https://thumbs2.imgbox.com/4b/e4/gsfilyH8_t.jpg" class="bbCodeImage LbImage" alt="[​IMG]" data-url="https://thumbs2.imgbox.com/4b/e4/gsfilyH8_t.jpg"></a> <a href="https://imgbox.com/wwNidIQ2" target="_blank" class="externalLink" rel="nofollow"><img src="https://thumbs2.imgbox.com/7b/71/wwNidIQ2_t.jpg" class="bbCodeImage LbImage" alt="[​IMG]" data-url="https://thumbs2.imgbox.com/7b/71/wwNidIQ2_t.jpg"></a> <a href="https://imgbox.com/u1rQG7LZ" target="_blank" class="externalLink" rel="nofollow"><img src="https://thumbs2.imgbox.com/32/e4/u1rQG7LZ_t.jpg" class="bbCodeImage LbImage" alt="[​IMG]" data-url="https://thumbs2.imgbox.com/32/e4/u1rQG7LZ_t.jpg"></a> <a href="https://imgbox.com/Odq5pyvl" target="_blank" class="externalLink" rel="nofollow"><img src="https://thumbs2.imgbox.com/37/9b/Odq5pyvl_t.jpg" class="bbCodeImage LbImage" alt="[​IMG]" data-url="https://thumbs2.imgbox.com/37/9b/Odq5pyvl_t.jpg"></a><br>
Duration: 0:10:30 Resolution: 1280x720 Format: mp4 Size: 192.15 MB<br>
<a href="https://filejoker.net/dmyl25p3f4fz" target="_blank" class="externalLink" rel="nofollow">https://filejoker.net/dmyl25p3f4fz</a>
<div class="messageTextEndMarker">&nbsp;</div>
</blockquote>
</article>]]></description>
                <author><![CDATA[piqeros]]></author>
                </item>

                </channel></rss>